<svg xmlns="http://www.w3.org/2000/svg" id="Calque_1" data-name="Calque 1" viewBox="0 0 1478.32 347.35">
  <defs>
    <style>
      .cls-1 {
        fill: #313132;
      }

      .cls-1, .cls-2 {
        stroke-width: 0px;
      }

      .cls-2 {
        fill: #cf4721;
      }
    </style>
  </defs>
  <g>
    <path class="cls-1" d="M609.27,155.88c-8.19,0-15.2-1.41-21.03-4.22-5.82-2.82-10.24-6.66-13.25-11.52-3-4.87-4.51-10.24-4.51-16.13,0-6.4,1.64-11.96,4.9-16.7,3.26-4.73,8.32-8.35,15.17-10.85,6.85-2.5,15.58-3.74,26.2-3.74h24.57v19.2h-19.58c-5.89,0-10.01.9-12.38,2.68-2.37,1.8-3.55,4.36-3.55,7.68,0,3.07,1.21,5.6,3.64,7.58,2.43,1.99,5.76,2.98,9.98,2.98s7.77-.99,11.04-2.98c3.26-1.98,5.6-5.02,7.01-9.12l4.99,13.43c-1.92,7.17-5.67,12.58-11.23,16.22-5.57,3.65-12.9,5.47-21.98,5.47ZM639.99,154.15v-19.39l-2.49-4.8v-35.71c0-5.76-1.77-10.21-5.28-13.34-3.52-3.14-9.12-4.71-16.8-4.71-4.99,0-10.08.83-15.26,2.5s-9.57,3.78-13.15,6.33l-12.1-24.57c5.89-3.84,12.96-6.85,21.21-9.02,8.26-2.17,16.48-3.26,24.67-3.26,16.89,0,29.98,3.91,39.26,11.71,9.28,7.81,13.92,19.97,13.92,36.48v57.79h-33.98Z"/>
    <path class="cls-1" d="M335.01,48.19c8.06,0,15.36,1.66,21.89,4.99,6.53,3.33,11.68,8.38,15.45,15.16,3.77,6.79,5.66,15.55,5.66,26.3v59.51h-36.67v-53.56c0-7.42-1.51-12.83-4.51-16.22-3.01-3.39-7.07-5.09-12.19-5.09-3.97,0-7.55.86-10.75,2.59-3.2,1.73-5.7,4.38-7.49,7.97-1.79,3.58-2.69,8.32-2.69,14.2v50.11h-36.48V49.91h34.94v29.76l-6.91-8.64c3.96-7.42,9.41-13.09,16.32-16.99,6.91-3.9,14.72-5.86,23.42-5.86Z"/>
    <path class="cls-1" d="M487.52,154.16V49.91h34.94v30.53l-5.37-8.64c3.2-7.8,8.22-13.69,15.07-17.66,6.85-3.96,15.2-5.95,25.06-5.95v33.02c-1.67-.25-3.14-.41-4.42-.48-1.28-.06-2.56-.1-3.84-.1-7.42,0-13.44,2.02-18.05,6.05-4.61,4.03-6.91,10.59-6.91,19.68v47.8h-36.48Z"/>
    <path class="cls-1" d="M914.17,139.14v.11l.05-.05-.05-.05Z"/>
    <path class="cls-1" d="M935.18,191.4V49.91h34.94v17.85l-.38,34.56,1.92,34.37v54.71h-36.48ZM1000.64,155.89c-8.83,0-16.38-1.95-22.65-5.86-6.27-3.9-11.04-9.82-14.3-17.75s-4.9-17.92-4.9-29.95,1.54-22.75,4.61-30.62c3.07-7.87,7.71-13.76,13.92-17.66,6.21-3.9,13.98-5.86,23.33-5.86s18.08,2.24,25.82,6.72c7.75,4.48,13.9,10.72,18.43,18.72,4.54,8,6.81,17.57,6.81,28.7s-2.27,20.35-6.81,28.41c-4.54,8.06-10.69,14.27-18.43,18.62-7.74,4.35-16.34,6.53-25.82,6.53ZM992.97,126.9c4.09,0,7.77-.96,11.04-2.88s5.89-4.73,7.88-8.45c1.99-3.71,2.97-8.12,2.97-13.24,0-5.5-.99-10.08-2.97-13.73-1.99-3.65-4.61-6.43-7.88-8.35-3.26-1.92-6.94-2.88-11.04-2.88s-7.78.96-11.04,2.88c-3.26,1.92-5.89,4.71-7.87,8.35-1.99,3.65-2.98,8.22-2.98,13.73,0,5.12.99,9.54,2.98,13.24,1.98,3.72,4.61,6.53,7.87,8.45,3.26,1.92,6.94,2.88,11.04,2.88Z"/>
    <path class="cls-1" d="M1183.48,38.59c-6.79,0-12.19-1.86-16.22-5.57-4.03-3.71-6.05-8.32-6.05-13.82s2.02-10.08,6.05-13.73c4.03-3.65,9.44-5.47,16.22-5.47s12.03,1.73,16.13,5.18c4.09,3.46,6.14,7.87,6.14,13.25,0,5.76-2.02,10.56-6.05,14.4-4.03,3.84-9.44,5.76-16.22,5.76ZM1165.25,154.16V49.91h36.47v104.25h-36.47Z"/>
    <path class="cls-1" d="M1435.32,48.19c8.06,0,15.36,1.66,21.88,4.99,6.53,3.33,11.68,8.38,15.46,15.16,3.77,6.79,5.66,15.55,5.66,26.3v59.51h-36.67v-53.56c0-7.42-1.51-12.83-4.51-16.22-3.01-3.39-7.07-5.09-12.19-5.09-3.97,0-7.55.86-10.75,2.59-3.2,1.73-5.7,4.38-7.49,7.97s-2.69,8.32-2.69,14.2v50.11h-36.47V49.91h34.94v29.76l-6.91-8.64c3.96-7.42,9.41-13.09,16.32-16.99,6.91-3.9,14.72-5.86,23.42-5.86Z"/>
    <path class="cls-1" d="M253.79,98.32c-.16-2.42-.44-4.72-.93-6.98-.16-.88-.38-1.76-.6-2.58-.27-1.04-.55-1.98-.82-2.91-1.26-3.79-2.91-7.47-5.05-11.1-.55-.88-1.1-1.76-1.65-2.64-.22-.38-.49-.71-.71-1.04-3.79-5.33-8.46-9.89-13.84-13.51-1.48-.99-2.97-1.87-4.45-2.69-7.69-4.12-16.43-6.48-25.77-6.48-17.69,0-33.46,8.46-43.29,21.59-1.04,1.43-1.98,2.86-2.91,4.34-1.26,2.03-2.36,4.23-3.35,6.48-.49,1.1-.93,2.25-1.32,3.46-.49,1.21-.88,2.53-1.21,3.79-.11.22-.16.44-.22.71-.38,1.37-.66,2.75-.88,4.18-.27,1.54-.49,3.08-.6,4.67-.16,1.48-.22,3.02-.22,4.56v.22c0,1.48.05,2.91.22,4.4,0,.27.05.6.05.88.11,1.26.27,2.53.55,3.79.22,1.43.55,2.8.88,4.12.22.88.44,1.7.71,2.58,6.87,21.87,27.36,37.74,51.59,37.74,22.36,0,41.53-13.51,49.77-32.8.33-.77.66-1.59.93-2.47.49-1.32.88-2.64,1.26-4.01,1.04-3.79,1.65-7.53,1.92-11.21.05-1.1.11-2.14.11-3.24v-.77c0-1.04-.05-2.09-.16-3.08ZM199.89,124.74c-12.36,0-22.42-10.05-22.42-22.42s10.05-22.47,22.42-22.47,22.47,10.05,22.47,22.47-10.05,22.42-22.47,22.42Z"/>
    <path class="cls-2" d="M1354.28,19.42h-44.78c-.77,0-1.37.6-1.37,1.37v17.64c0,.77.6,1.37,1.37,1.37h11.21l-17.47,17.47c-8.96-6.04-19.28-9.23-30.11-9.23-15.88,0-30.88,6.87-41.2,18.9-17.47,20.49-17.14,51.09.82,71.15,10.22,11.43,24.89,18.02,40.22,18.02,10.71,0,21.1-3.19,30-9.12,11.26-7.53,18.68-17.8,22.09-30.6,4.23-15.77,1.81-30.71-7.14-44.39l17.47-17.36v10.93c0,.77.6,1.37,1.37,1.37h17.53c.77,0,1.37-.6,1.37-1.37V20.79c0-.77-.6-1.37-1.37-1.37ZM1273.02,124.51c-12.36,0-22.42-10.05-22.42-22.42s10.05-22.47,22.42-22.47,22.47,10.05,22.47,22.47-10.05,22.42-22.47,22.42Z"/>
    <path class="cls-1" d="M78.74,124.28c-.93.05-1.92.11-2.91.11-.93,0-1.81,0-2.69-.11h5.6Z"/>
    <g>
      <path class="cls-1" d="M391.31,53.93v27.3h75.43v-27.3h-75.43ZM406.47,26.68v54.55h36.48V26.68h-36.48Z"/>
      <path class="cls-1" d="M443.06,117.44v36.7h-36.59v-72.9h36.48v34.34c0,.66,0,1.26.11,1.87Z"/>
      <path class="cls-1" d="M443.06,81.23v36.21c-.11-.6-.11-1.21-.11-1.87v-34.34h.11Z"/>
    </g>
    <g>
      <path class="cls-1" d="M1065,53.93v27.3h75.43v-27.3h-75.43ZM1080.16,26.68v54.55h36.48V26.68h-36.48Z"/>
      <path class="cls-1" d="M1116.75,117.44v36.7h-36.59v-72.9h36.48v34.34c0,.66,0,1.26.11,1.87Z"/>
      <path class="cls-1" d="M1116.75,81.24v36.21c-.11-.6-.11-1.21-.11-1.87v-34.34h.11Z"/>
    </g>
    <polygon class="cls-1" points="795.72 126.89 795.72 127.27 794.95 126.89 795.72 126.89"/>
  </g>
  <g>
    <path class="cls-2" d="M214.06,347.32c-8.19,0-15.2-1.41-21.03-4.22-5.82-2.82-10.24-6.66-13.25-11.52-3-4.87-4.51-10.24-4.51-16.13,0-6.4,1.64-11.96,4.9-16.7,3.26-4.73,8.32-8.35,15.17-10.85,6.85-2.5,15.58-3.74,26.2-3.74h24.57v19.2h-19.58c-5.89,0-10.01.9-12.38,2.68-2.37,1.8-3.55,4.36-3.55,7.68,0,3.07,1.21,5.6,3.64,7.58,2.43,1.99,5.76,2.98,9.98,2.98s7.77-.99,11.04-2.98c3.26-1.98,5.6-5.02,7.01-9.12l4.99,13.43c-1.92,7.17-5.67,12.58-11.23,16.22-5.57,3.65-12.9,5.47-21.98,5.47ZM244.77,345.59v-19.39l-2.49-4.8v-35.71c0-5.76-1.77-10.21-5.28-13.34-3.52-3.14-9.12-4.71-16.8-4.71-4.99,0-10.08.83-15.26,2.5-5.18,1.66-9.57,3.78-13.15,6.33l-12.1-24.57c5.89-3.84,12.96-6.85,21.21-9.02,8.26-2.17,16.48-3.26,24.67-3.26,16.89,0,29.98,3.91,39.26,11.71,9.28,7.81,13.92,19.97,13.92,36.48v57.79h-33.98Z"/>
    <path class="cls-2" d="M339.61,347.32c-8.83,0-17.44-1.02-25.82-3.07-8.39-2.04-15.14-4.61-20.25-7.68l10.75-24.96c4.99,2.95,10.75,5.31,17.28,7.1,6.53,1.8,12.93,2.69,19.2,2.69s10.4-.67,12.76-2.02c2.37-1.34,3.55-3.17,3.55-5.47,0-1.92-1.09-3.39-3.26-4.42-2.18-1.02-5.12-1.76-8.83-2.21-3.71-.45-7.72-.96-12-1.53-4.29-.58-8.67-1.47-13.15-2.69s-8.54-2.91-12.19-5.09-6.56-5.19-8.73-9.02c-2.18-3.84-3.26-8.7-3.26-14.59,0-6.65,1.95-12.57,5.85-17.76,3.9-5.18,9.6-9.31,17.09-12.38,7.48-3.07,16.73-4.61,27.74-4.61,7.3,0,14.69.77,22.17,2.3,7.49,1.53,13.79,3.77,18.91,6.72l-10.94,24.96c-5.12-3.07-10.24-5.12-15.36-6.14-5.12-1.02-9.92-1.54-14.4-1.54-6.14,0-10.53.67-13.15,2.02-2.62,1.34-3.94,3.04-3.94,5.09s1.15,3.62,3.46,4.71c2.31,1.09,5.25,1.92,8.83,2.49s7.59,1.15,12,1.73,8.8,1.44,13.15,2.59c4.35,1.15,8.32,2.85,11.9,5.09,3.58,2.24,6.5,5.25,8.74,9.02,2.24,3.78,3.36,8.67,3.36,14.68s-1.92,11.97-5.76,17.09c-3.84,5.12-9.6,9.21-17.28,12.29-7.68,3.07-17.15,4.61-28.41,4.61Z"/>
    <path class="cls-2" d="M566.34,347.32c-8.44,0-16.03-1.67-22.75-4.99-6.72-3.33-11.97-8.54-15.74-15.64-3.78-7.1-5.67-16.15-5.67-27.16v-58.17h36.48v52.22c0,8.06,1.5,13.85,4.51,17.37,3,3.52,7.26,5.28,12.76,5.28,3.58,0,6.88-.83,9.89-2.49,3-1.66,5.34-4.32,7.01-7.97s2.49-8.28,2.49-13.92v-50.49h36.48v104.25h-34.56v-29.37l6.72,8.26c-3.72,7.68-8.93,13.41-15.65,17.18-6.72,3.78-14.05,5.67-21.98,5.67Z"/>
    <path class="cls-2" d="M655.42,345.59v-142.45h36.47v142.45h-36.47Z"/>
    <path class="cls-2" d="M733.74,230.02c-6.79,0-12.19-1.86-16.22-5.57-4.03-3.71-6.05-8.32-6.05-13.82s2.02-10.08,6.05-13.73c4.03-3.65,9.44-5.47,16.22-5.47s12.03,1.73,16.13,5.18c4.09,3.46,6.14,7.87,6.14,13.25,0,5.76-2.02,10.56-6.05,14.4-4.03,3.84-9.44,5.76-16.22,5.76ZM715.5,345.59v-104.25h36.47v104.25h-36.47Z"/>
    <path class="cls-2" d="M843.36,239.61c8.06,0,15.36,1.66,21.88,4.99,6.53,3.33,11.68,8.38,15.46,15.16,3.77,6.79,5.66,15.55,5.66,26.3v59.51h-36.67v-53.56c0-7.42-1.51-12.83-4.51-16.22-3.01-3.39-7.07-5.09-12.19-5.09-3.97,0-7.55.86-10.75,2.59-3.2,1.73-5.7,4.38-7.49,7.97-1.79,3.58-2.69,8.32-2.69,14.2v50.11h-36.47v-104.25h34.94v29.76l-6.91-8.64c3.96-7.42,9.41-13.09,16.32-16.99,6.91-3.9,14.72-5.86,23.42-5.86Z"/>
    <path class="cls-2" d="M0,345.59v-134.39h31.29l55.48,91.38h-16.51l54.33-91.38h31.29l.19,134.39h-34.94l-.39-81.21h5.95l-40.51,67.96h-16.89l-41.66-67.96h7.3v81.21H0Z"/>
  </g>
  <path class="cls-1" d="M746.98,155.89c-11.65,0-21.95-2.31-30.91-6.91-8.96-4.61-16-10.98-21.12-19.11-5.12-8.12-7.68-17.37-7.68-27.74s2.56-19.78,7.68-27.84c5.12-8.06,12.16-14.43,21.12-19.1,8.96-4.67,19.26-7.01,30.91-7.01s21.95,2.53,30.53,7.58c8.57,5.06,14.65,12.06,18.24,21.02l-28.22,14.59c-2.43-4.86-5.44-8.42-9.02-10.66-3.58-2.24-7.49-3.36-11.71-3.36s-8.03.96-11.43,2.88c-3.39,1.92-6.11,4.67-8.16,8.26-2.05,3.58-3.07,8.13-3.07,13.63s1.02,9.73,3.07,13.43c2.05,3.72,4.77,6.53,8.16,8.45s7.2,2.88,11.43,2.88,8.13-1.12,11.71-3.36c3.58-2.24,6.59-5.79,9.02-10.66l28.22,14.4c-3.58,8.96-9.67,15.97-18.24,21.02-8.58,5.06-18.75,7.59-30.53,7.59Z"/>
  <path class="cls-1" d="M73.93,155.89c-10.63,0-20.42-1.7-29.37-5.09-8.96-3.39-16.77-8.19-23.42-14.4-6.65-6.21-11.84-13.6-15.55-22.17C1.87,105.66.02,96.25.02,86.01s1.86-19.64,5.57-28.22c3.71-8.57,8.9-15.96,15.55-22.17,6.66-6.2,14.46-11.01,23.42-14.4,8.95-3.39,18.75-5.09,29.37-5.09,12.41,0,23.52,2.15,33.31,6.43,9.79,4.29,17.95,10.59,24.48,18.91l-24.19,21.88c-4.36-5.12-9.15-9.02-14.4-11.71s-11.01-4.03-17.28-4.03c-5.5,0-10.56.9-15.17,2.69-4.61,1.79-8.55,4.39-11.81,7.77-3.26,3.39-5.83,7.46-7.68,12.19-1.86,4.73-2.78,9.98-2.78,15.74s.93,11.01,2.78,15.74c1.85,4.74,4.42,8.8,7.68,12.19,3.26,3.39,7.2,5.98,11.81,7.77,4.61,1.79,9.66,2.69,15.17,2.69,6.27,0,12.03-1.34,17.28-4.03s10.04-6.65,14.4-11.9l24.19,21.89c-6.52,8.32-14.68,14.65-24.48,19.01-9.79,4.35-20.9,6.53-33.31,6.53Z"/>
  <path class="cls-2" d="M459.96,347.31c-11.65,0-21.95-2.31-30.91-6.91-8.96-4.61-16-10.98-21.12-19.11-5.12-8.12-7.68-17.37-7.68-27.74s2.56-19.78,7.68-27.84c5.12-8.06,12.16-14.43,21.12-19.1,8.96-4.67,19.26-7.01,30.91-7.01s21.95,2.53,30.53,7.58c8.57,5.06,14.65,12.06,18.24,21.02l-28.22,14.59c-2.43-4.86-5.44-8.42-9.02-10.66-3.58-2.24-7.49-3.36-11.71-3.36s-8.03.96-11.43,2.88c-3.39,1.92-6.11,4.67-8.16,8.26-2.05,3.58-3.07,8.13-3.07,13.63s1.02,9.73,3.07,13.43c2.05,3.72,4.77,6.53,8.16,8.45s7.2,2.88,11.43,2.88,8.13-1.12,11.71-3.36c3.58-2.24,6.59-5.79,9.02-10.66l28.22,14.4c-3.58,8.96-9.67,15.97-18.24,21.02-8.58,5.06-18.75,7.59-30.53,7.59Z"/>
  <path class="cls-1" d="M870.27,155.9c-12.42,0-23.2-2.33-32.35-7.01-9.15-4.67-16.26-11.07-21.31-19.2-5.06-8.12-7.58-17.31-7.58-27.54s2.46-19.81,7.39-27.93c4.93-8.13,11.71-14.49,20.35-19.1,8.64-4.61,18.46-6.91,29.47-6.91,10.24,0,19.55,2.14,27.93,6.43,8.38,4.29,15.1,10.43,20.16,18.43,5.05,8,7.58,17.76,7.58,29.28,0,1.28-.07,2.76-.19,4.41-.13,1.67-.26,3.2-.38,4.61h-82.36v-19.2h62.97l-13.82,5.38c.13-4.61-.74-8.67-2.59-12.19-1.86-3.52-4.39-6.24-7.58-8.16-3.2-1.92-6.98-2.88-11.33-2.88s-8.38.96-11.71,2.88c-3.33,1.92-5.85,4.64-7.58,8.16-1.73,3.52-2.59,7.65-2.59,12.38v5.57c0,5.12,1.06,9.54,3.17,13.24,2.11,3.71,5.15,6.56,9.12,8.55,3.96,1.99,8.7,2.97,14.21,2.97s9.66-.74,13.25-2.21c3.58-1.47,7.17-3.74,10.75-6.81l19.01,20.16c-4.87,5.38-10.94,9.5-18.24,12.38-7.29,2.88-15.87,4.32-25.72,4.32Z"/>
  <path class="cls-2" d="M963.95,347.34c-12.42,0-23.2-2.33-32.35-7.01-9.15-4.67-16.26-11.07-21.31-19.2-5.06-8.12-7.58-17.31-7.58-27.54s2.46-19.81,7.39-27.93c4.93-8.13,11.71-14.49,20.35-19.1,8.64-4.61,18.46-6.91,29.47-6.91,10.24,0,19.55,2.14,27.93,6.43,8.38,4.29,15.1,10.43,20.16,18.43,5.05,8,7.58,17.76,7.58,29.28,0,1.28-.07,2.76-.19,4.41-.13,1.67-.26,3.2-.38,4.61h-82.36v-19.2h62.97l-13.82,5.38c.13-4.61-.74-8.67-2.59-12.19-1.86-3.52-4.39-6.24-7.58-8.16-3.2-1.92-6.98-2.88-11.33-2.88s-8.38.96-11.71,2.88c-3.33,1.92-5.85,4.64-7.58,8.16-1.73,3.52-2.59,7.65-2.59,12.38v5.57c0,5.12,1.06,9.54,3.17,13.24,2.11,3.71,5.15,6.56,9.12,8.55,3.96,1.99,8.7,2.97,14.21,2.97s9.66-.74,13.25-2.21c3.58-1.47,7.17-3.74,10.75-6.81l19.01,20.16c-4.87,5.38-10.94,9.5-18.24,12.38-7.29,2.88-15.87,4.32-25.72,4.32Z"/>
</svg>