<svg width="442" height="172" viewBox="0 0 442 172" fill="none" xmlns="http://www.w3.org/2000/svg">
<path d="M110.2 161.256C104.152 161.256 100.6 156.616 100.6 150.248C100.6 143.88 104.152 139.24 110.2 139.24C115.256 139.24 118.168 142.216 119.288 146.28L117.976 147.176C117.08 143.432 114.808 140.68 110.2 140.68C105.048 140.68 102.2 144.648 102.2 150.248C102.2 155.848 105.048 159.816 110.2 159.816C114.808 159.816 117.08 157.064 117.976 153.32L119.288 154.216C118.168 158.28 115.256 161.256 110.2 161.256ZM129.01 161.32C124.819 161.32 121.907 158.184 121.907 153.352C121.907 148.52 124.819 145.384 129.01 145.384C133.203 145.384 136.115 148.52 136.115 153.352C136.115 158.184 133.203 161.32 129.01 161.32ZM129.01 160.008C132.307 160.008 134.547 157.544 134.547 153.352C134.547 149.128 132.307 146.696 129.01 146.696C125.715 146.696 123.475 149.128 123.475 153.352C123.475 157.544 125.715 160.008 129.01 160.008ZM141.498 161H139.962V145.704H141.498V150.28C141.946 147.624 143.77 145.384 146.97 145.384C149.978 145.384 152.122 147.176 152.122 150.92V161H150.586V151.208C150.586 148.328 149.146 146.696 146.426 146.696C143.002 146.696 141.498 149.288 141.498 152.04V161ZM161.139 161.32C158.931 161.32 157.075 160.008 157.075 157.16V146.952H154.547V145.704H157.075V143.336L158.611 142.184V145.704H163.827V146.952H158.611V156.808C158.611 159.144 159.891 159.88 161.395 159.88C162.739 159.88 164.019 158.984 164.595 157.832L165.171 159.336C164.499 160.488 162.931 161.32 161.139 161.32ZM168.842 161H167.306V145.704H168.842V150.12C169.322 147.592 171.146 145.384 173.802 145.384C175.69 145.384 177.066 146.536 177.066 148.552C177.066 149.608 176.842 150.568 176.522 151.176H174.826C175.21 150.664 175.562 149.672 175.562 148.712C175.562 147.624 174.89 146.568 173.29 146.568C170.73 146.568 168.842 149.352 168.842 152.04V161ZM182.747 161.32C180.315 161.32 178.907 160.04 178.907 158.024C178.907 156.04 180.379 154.792 182.427 153.864L188.475 151.08L188.443 150.6C188.443 148.04 187.131 146.824 184.699 146.824C182.331 146.824 180.507 148.136 179.674 149.832L178.587 148.744C179.547 147.112 181.755 145.384 184.827 145.384C188.283 145.384 189.979 147.336 189.979 150.568V158.408C189.979 159.304 190.395 159.592 191.195 159.592H192.027V161H190.875C189.371 161 188.475 160.392 188.475 158.632V156.648C187.931 159.016 185.691 161.32 182.747 161.32ZM180.475 157.832C180.475 159.272 181.562 160.008 183.131 160.008C186.203 160.008 188.475 157.416 188.475 155.464V152.296L183.131 154.824C181.307 155.688 180.475 156.52 180.475 157.832ZM201.668 161.32C197.476 161.32 194.628 158.408 194.628 153.352C194.628 148.296 197.476 145.384 201.7 145.384C205.38 145.384 207.78 147.56 208.292 150.664L206.852 151.336C206.5 148.648 204.772 146.696 201.732 146.696C198.468 146.696 196.196 148.936 196.196 153.352C196.196 157.768 198.468 160.008 201.7 160.008C204.772 160.008 206.532 158.088 206.852 155.368L208.292 156.04C207.78 159.144 205.348 161.32 201.668 161.32ZM218.296 161.32C214.072 161.32 211.128 158.568 211.128 153.352C211.128 148.296 213.912 145.384 218.008 145.384C222.008 145.384 224.6 148.136 224.6 152.872C224.6 153.16 224.536 153.512 224.504 153.736H212.632C212.728 158.024 215.032 160.008 218.296 160.008C221.4 160.008 222.84 158.312 223.544 156.648L224.504 157.832C223.448 159.752 221.496 161.32 218.296 161.32ZM218.008 146.696C214.936 146.696 212.856 148.648 212.664 152.552H223.192C223.032 148.584 220.984 146.696 218.008 146.696ZM230.029 166.952H228.493V145.704H230.029V149.928C230.477 147.464 232.301 145.352 235.245 145.352C239.341 145.352 241.709 148.52 241.709 153.352C241.709 158.152 239.341 161.32 235.245 161.32C232.301 161.32 230.477 159.24 230.029 156.744V166.952ZM230.029 155.048C230.029 157.608 231.661 160.008 234.861 160.008C237.933 160.008 240.141 157.928 240.141 153.352C240.141 148.744 237.933 146.696 234.861 146.696C231.661 146.696 230.029 149.064 230.029 151.624V155.048ZM250.139 161.32C247.931 161.32 246.075 160.008 246.075 157.16V146.952H243.547V145.704H246.075V143.336L247.611 142.184V145.704H252.827V146.952H247.611V156.808C247.611 159.144 248.891 159.88 250.395 159.88C251.739 159.88 253.019 158.984 253.595 157.832L254.171 159.336C253.499 160.488 251.931 161.32 250.139 161.32ZM258.623 142.824H257.087V139.56H258.623V142.824ZM258.623 161H257.087V145.704H258.623V161ZM269.448 161.32C265.256 161.32 262.344 158.184 262.344 153.352C262.344 148.52 265.256 145.384 269.448 145.384C273.64 145.384 276.552 148.52 276.552 153.352C276.552 158.184 273.64 161.32 269.448 161.32ZM269.448 160.008C272.744 160.008 274.984 157.544 274.984 153.352C274.984 149.128 272.744 146.696 269.448 146.696C266.152 146.696 263.912 149.128 263.912 153.352C263.912 157.544 266.152 160.008 269.448 160.008ZM281.935 161H280.399V145.704H281.935V150.28C282.383 147.624 284.207 145.384 287.407 145.384C290.415 145.384 292.559 147.176 292.559 150.92V161H291.023V151.208C291.023 148.328 289.583 146.696 286.863 146.696C283.439 146.696 281.935 149.288 281.935 152.04V161ZM305.748 161H304.212V145.704H305.748V150.28C306.196 147.624 308.02 145.384 310.932 145.384C313.652 145.384 315.316 146.92 315.508 150.216C315.988 147.592 317.812 145.384 320.724 145.384C323.604 145.384 325.332 147.144 325.332 150.856V161H323.796V151.144C323.796 148.168 322.516 146.696 320.084 146.696C317.044 146.696 315.54 149.288 315.54 152.04V161H314.004V151.144C314.004 148.168 312.724 146.696 310.292 146.696C307.252 146.696 305.748 149.288 305.748 152.04V161ZM332.84 161.32C330.408 161.32 329 160.04 329 158.024C329 156.04 330.472 154.792 332.52 153.864L338.568 151.08L338.536 150.6C338.536 148.04 337.224 146.824 334.792 146.824C332.424 146.824 330.6 148.136 329.768 149.832L328.68 148.744C329.64 147.112 331.848 145.384 334.92 145.384C338.376 145.384 340.072 147.336 340.072 150.568V158.408C340.072 159.304 340.488 159.592 341.288 159.592H342.12V161H340.968C339.464 161 338.568 160.392 338.568 158.632V156.648C338.024 159.016 335.784 161.32 332.84 161.32ZM330.568 157.832C330.568 159.272 331.656 160.008 333.224 160.008C336.296 160.008 338.568 157.416 338.568 155.464V152.296L333.224 154.824C331.4 155.688 330.568 156.52 330.568 157.832ZM351.002 161.32C347.962 161.32 345.05 159.912 344.218 156.84L345.402 155.944C345.85 158.28 347.93 160.008 351.066 160.008C353.338 160.008 354.746 159.048 354.746 157.224C354.746 155.528 353.402 154.824 351.13 154.28L349.018 153.768C346.81 153.256 344.602 152.264 344.602 149.576C344.602 147.048 346.65 145.384 349.69 145.384C352.954 145.384 354.97 146.984 355.706 149.288L354.522 150.152C353.818 147.848 352.154 146.696 349.626 146.696C347.578 146.696 346.106 147.72 346.106 149.512C346.106 151.336 347.386 151.944 349.69 152.52L351.802 153.032C354.746 153.768 356.186 155.016 356.186 157.192C356.186 160.072 353.754 161.32 351.002 161.32ZM365.73 161.32C361.538 161.32 358.69 158.408 358.69 153.352C358.69 148.296 361.538 145.384 365.762 145.384C369.442 145.384 371.842 147.56 372.354 150.664L370.914 151.336C370.562 148.648 368.834 146.696 365.794 146.696C362.53 146.696 360.258 148.936 360.258 153.352C360.258 157.768 362.53 160.008 365.762 160.008C368.834 160.008 370.594 158.088 370.914 155.368L372.354 156.04C371.842 159.144 369.41 161.32 365.73 161.32ZM380.703 161.32C377.759 161.32 375.615 159.528 375.615 155.784V145.704H377.151V155.496C377.151 158.344 378.591 160.008 381.247 160.008C384.831 160.008 386.239 157.416 386.239 154.664V145.704H387.775V161H386.239V156.392C385.823 159.08 384.031 161.32 380.703 161.32ZM394.06 161H392.524V139.56H394.06V161ZM400.342 142.824H398.806V139.56H400.342V142.824ZM400.342 161H398.806V145.704H400.342V161ZM406.623 161H405.087V145.704H406.623V150.28C407.071 147.624 408.895 145.384 412.095 145.384C415.103 145.384 417.247 147.176 417.247 150.92V161H415.711V151.208C415.711 148.328 414.271 146.696 411.551 146.696C408.127 146.696 406.623 149.288 406.623 152.04V161ZM428.078 161.32C423.854 161.32 420.91 158.568 420.91 153.352C420.91 148.296 423.694 145.384 427.79 145.384C431.79 145.384 434.382 148.136 434.382 152.872C434.382 153.16 434.318 153.512 434.286 153.736H422.414C422.51 158.024 424.814 160.008 428.078 160.008C431.182 160.008 432.622 158.312 433.326 156.648L434.286 157.832C433.23 159.752 431.278 161.32 428.078 161.32ZM427.79 146.696C424.718 146.696 422.638 148.648 422.446 152.552H432.974C432.814 148.584 430.766 146.696 427.79 146.696Z" fill="black"/>
<path d="M54.528 117H31.104L0.64 31.24H22.144L36.864 77.448L43.136 104.84L49.536 77.448L64.256 31.24H84.992L54.528 117ZM148.06 22.92H132.316V9.60799H148.06V22.92ZM125.788 22.92H110.172V9.60799H125.788V22.92ZM129.116 118.152C103.516 118.152 85.98 98.824 85.98 73.992C85.98 49.288 103.516 29.96 129.116 29.96C154.716 29.96 172.252 49.288 172.252 73.992C172.252 98.824 154.716 118.152 129.116 118.152ZM129.116 100.36C144.988 100.36 152.924 89.352 152.924 73.992C152.924 58.76 144.988 47.624 129.116 47.624C113.372 47.624 105.308 58.76 105.308 73.992C105.308 89.352 113.372 100.36 129.116 100.36ZM216.436 118.024C195.828 118.024 180.98 103.048 180.98 73.992C180.98 48.52 196.468 29.96 224.116 29.96C242.292 29.96 255.988 38.408 262.004 52.616L246.516 64.392C244.212 54.792 236.532 47.496 224.116 47.496C208.244 47.496 200.692 58.248 200.692 73.992C200.692 90.504 209.012 100.744 223.604 100.744C235.508 100.744 241.652 94.856 245.108 85.768H221.556V71.048H262.644V117H250.484L246.132 85.768C245.236 105.992 234.74 118.024 216.436 118.024ZM339.388 117H276.412V31.24H339.388V47.496H294.716V65.544H332.092V81.8H294.716V100.744H339.388V117ZM410.221 117H349.037V31.24H367.341V100.744H410.221V117ZM434.716 117H416.412V31.24H434.716V117Z" fill="black"/>
</svg>
